<?xml version="1.0" encoding="UTF-8"?>
<svg xmlns="http://www.w3.org/2000/svg" xmlns:xlink="http://www.w3.org/1999/xlink" width="215px" height="82px" viewBox="0 0 215 82" version="1.1" style="background-color:transparent;">
  <defs>
    <clipPath id="clip1">
      <path d="M 160.484375 15.203125 L 175 15.203125 L 175 29.71875 L 160.484375 29.71875 Z M 160.484375 15.203125 "/>
    </clipPath>
    <clipPath id="clip2">
      <path d="M 167.742188 15.203125 C 163.734375 15.203125 160.484375 18.453125 160.484375 22.460938 C 160.484375 26.46875 163.734375 29.71875 167.742188 29.71875 C 171.75 29.71875 175 26.46875 175 22.460938 C 175 18.453125 171.75 15.203125 167.742188 15.203125 Z M 167.742188 15.203125 "/>
    </clipPath>
    <clipPath id="clip3">
      <path d="M 160.484375 19.234375 L 172.898438 19.234375 L 172.898438 29.738281 L 160.484375 29.738281 Z M 160.484375 19.234375 "/>
    </clipPath>
  </defs>
  <g id="surface1">
    <rect x="0" y="0" width="215" height="82" style="fill:none;fill-opacity:1;stroke:none;" fill="none"/>
    <path style=" stroke:none;fill-rule:nonzero;fill:rgb(65.882355%,85.490197%,86.274511%);fill-opacity:1;" d="M 42.90625 19.316406 C 43.589844 16.804688 44.644531 14.9375 46.066406 13.714844 C 47.488281 12.496094 48.980469 11.882812 50.546875 11.882812 C 52.207031 11.882812 53.761719 12.574219 55.203125 13.945312 C 56.648438 15.316406 57.589844 17.367188 58.03125 20.085938 C 58.234375 21.304688 58.335938 22.917969 58.335938 24.914062 C 58.335938 26.984375 58.25 29.355469 58.082031 32.023438 C 57.910156 34.6875 57.675781 37.460938 57.386719 40.347656 C 57.101562 43.230469 56.789062 46.085938 56.449219 48.898438 C 56.109375 51.710938 55.773438 54.328125 55.433594 56.738281 C 55.09375 59.148438 54.792969 61.210938 54.523438 62.925781 C 54.25 64.640625 54.042969 65.820312 53.90625 66.464844 C 53.699219 67.3125 53.277344 67.921875 52.632812 68.296875 C 51.988281 68.667969 51.277344 68.855469 50.496094 68.855469 C 49.609375 68.855469 48.769531 68.644531 47.972656 68.222656 C 47.175781 67.796875 46.660156 67.261719 46.425781 66.617188 C 46.085938 65.597656 45.8125 64.144531 45.609375 62.261719 C 45.40625 60.382812 45.253906 58.242188 45.144531 55.84375 C 45.042969 53.453125 44.992188 50.984375 44.992188 48.441406 C 44.992188 45.691406 45.035156 42.984375 45.117188 40.320312 C 45.203125 37.65625 45.335938 35.230469 45.507812 33.039062 C 45.675781 30.851562 45.847656 29.109375 46.019531 27.820312 C 45.917969 28.292969 45.660156 29.109375 45.25 30.269531 C 44.84375 31.421875 44.351562 32.753906 43.769531 34.261719 C 43.191406 35.769531 42.59375 37.339844 41.964844 38.972656 C 41.339844 40.597656 40.726562 42.167969 40.136719 43.679688 C 39.539062 45.191406 39.035156 46.515625 38.625 47.65625 C 38.21875 48.789062 37.953125 49.597656 37.820312 50.074219 C 37.578125 51.054688 37.121094 51.832031 36.445312 52.410156 C 35.765625 52.992188 35.035156 53.28125 34.25 53.28125 C 33.574219 53.28125 32.886719 53.039062 32.191406 52.5625 C 31.496094 52.085938 30.894531 51.324219 30.390625 50.273438 C 29.058594 46.644531 28.007812 43.621094 27.230469 41.210938 C 26.449219 38.800781 25.847656 36.84375 25.425781 35.335938 C 25 33.824219 24.660156 32.621094 24.402344 31.71875 C 24.148438 30.816406 23.902344 30.074219 23.671875 29.5 C 23.671875 30.992188 23.632812 32.84375 23.566406 35.050781 C 23.496094 37.261719 23.398438 39.644531 23.28125 42.207031 C 23.160156 44.769531 23.023438 47.34375 22.875 49.921875 C 22.722656 52.496094 22.558594 54.90625 22.390625 57.144531 C 22.222656 59.386719 22.058594 61.277344 21.886719 62.820312 C 21.714844 64.371094 21.542969 65.382812 21.375 65.859375 C 21.03125 67.078125 20.476562 67.960938 19.714844 68.507812 C 18.953125 69.050781 18.132812 69.324219 17.253906 69.324219 C 16.402344 69.324219 15.558594 69.074219 14.730469 68.582031 C 13.902344 68.089844 13.296875 67.417969 12.917969 66.570312 C 12.480469 65.550781 12.066406 64.089844 11.675781 62.183594 C 11.28125 60.289062 10.957031 58.097656 10.707031 55.617188 C 10.453125 53.144531 10.25 50.496094 10.101562 47.683594 C 9.949219 44.863281 9.871094 42.007812 9.871094 39.121094 C 9.871094 35.1875 10.023438 31.386719 10.328125 27.722656 C 10.632812 24.054688 11.121094 20.964844 11.796875 18.453125 C 12.378906 16.246094 13.339844 14.652344 14.675781 13.667969 C 16.015625 12.679688 17.417969 12.1875 18.878906 12.1875 C 20.4375 12.1875 21.898438 12.679688 23.253906 13.667969 C 24.613281 14.652344 25.515625 16.039062 25.957031 17.835938 C 25.957031 17.835938 26.09375 18.320312 26.367188 19.289062 C 26.636719 20.253906 27.011719 21.53125 27.484375 23.113281 C 27.960938 24.6875 28.484375 26.441406 29.058594 28.378906 C 29.632812 30.316406 30.230469 32.269531 30.84375 34.234375 C 31.457031 36.203125 32.042969 38.046875 32.601562 39.757812 C 33.164062 41.472656 33.671875 42.917969 34.128906 44.085938 C 34.582031 45.257812 34.945312 45.980469 35.21875 46.25 C 35.761719 43.878906 36.390625 41.425781 37.109375 38.894531 C 37.820312 36.367188 38.550781 33.890625 39.300781 31.464844 C 40.042969 29.035156 40.734375 26.773438 41.359375 24.6875 C 41.984375 22.597656 42.5 20.808594 42.90625 19.316406 Z M 42.90625 19.316406 "/>
    <path style=" stroke:none;fill-rule:nonzero;fill:rgb(65.882355%,85.490197%,86.274511%);fill-opacity:1;" d="M 70.199219 30.515625 C 72.132812 30.515625 73.8125 30.910156 75.238281 31.691406 C 76.664062 32.46875 77.847656 33.515625 78.777344 34.824219 C 79.710938 36.128906 80.410156 37.613281 80.863281 39.273438 C 81.324219 40.941406 81.554688 42.652344 81.554688 44.417969 C 81.554688 46.285156 81.316406 48.121094 80.835938 49.921875 C 80.359375 51.71875 79.652344 53.371094 78.71875 54.878906 C 77.789062 56.390625 76.636719 57.609375 75.265625 58.539062 C 73.890625 59.476562 72.324219 60.015625 70.558594 60.15625 L 69.996094 60.15625 C 68.433594 60.15625 67.042969 59.699219 65.824219 58.796875 C 64.601562 57.898438 63.574219 56.703125 62.738281 55.210938 C 61.90625 53.714844 61.273438 52.042969 60.832031 50.199219 C 60.386719 48.351562 60.167969 46.476562 60.167969 44.570312 C 60.167969 42.773438 60.359375 41.042969 60.753906 39.378906 C 61.144531 37.714844 61.757812 36.214844 62.585938 34.871094 C 63.414062 33.53125 64.457031 32.46875 65.707031 31.691406 C 66.964844 30.910156 68.464844 30.515625 70.199219 30.515625 Z M 69.589844 56.328125 C 70.132812 56.328125 70.632812 55.972656 71.089844 55.257812 C 71.542969 54.546875 71.949219 53.609375 72.304688 52.4375 C 72.664062 51.265625 72.945312 49.960938 73.148438 48.519531 C 73.351562 47.074219 73.453125 45.644531 73.453125 44.21875 C 73.453125 42.621094 73.316406 41.132812 73.042969 39.757812 C 72.777344 38.386719 72.328125 37.277344 71.695312 36.425781 C 71.070312 35.582031 70.246094 35.15625 69.230469 35.15625 L 69.078125 35.15625 C 68.359375 35.1875 67.757812 35.695312 67.265625 36.683594 C 66.777344 37.664062 66.414062 38.929688 66.171875 40.46875 C 65.9375 42.015625 65.824219 43.65625 65.824219 45.386719 C 65.824219 47.183594 65.957031 48.921875 66.230469 50.597656 C 66.5 52.28125 66.898438 53.65625 67.425781 54.726562 C 67.949219 55.792969 68.621094 56.328125 69.4375 56.328125 Z M 69.589844 56.328125 "/>
    <path style=" stroke:none;fill-rule:nonzero;fill:rgb(65.882355%,85.490197%,86.274511%);fill-opacity:1;" d="M 124.164062 57.960938 C 124.132812 58.402344 123.886719 58.828125 123.425781 59.234375 C 122.96875 59.644531 122.410156 59.976562 121.746094 60.230469 C 121.085938 60.480469 120.433594 60.609375 119.789062 60.609375 C 119.144531 60.609375 118.582031 60.457031 118.101562 60.15625 C 117.625 59.851562 117.390625 59.320312 117.390625 58.570312 C 117.390625 58.503906 117.398438 58.421875 117.417969 58.324219 C 117.4375 58.21875 117.445312 58.136719 117.445312 58.066406 C 117.578125 57.078125 117.695312 55.847656 117.796875 54.375 C 117.898438 52.898438 117.984375 51.347656 118.054688 49.714844 C 118.121094 48.082031 118.15625 46.539062 118.15625 45.082031 C 118.15625 43.449219 118.105469 42.109375 118.007812 41.058594 C 117.96875 39.261719 117.726562 38.007812 117.285156 37.292969 C 116.847656 36.578125 116.308594 36.21875 115.664062 36.21875 C 115.117188 36.21875 114.539062 36.425781 113.925781 36.835938 C 113.316406 37.242188 112.742188 37.742188 112.199219 38.335938 C 111.652344 38.929688 111.183594 39.515625 110.792969 40.089844 C 110.40625 40.667969 110.164062 41.140625 110.0625 41.515625 C 109.789062 42.464844 109.570312 43.722656 109.398438 45.28125 C 109.226562 46.847656 109.109375 48.441406 109.046875 50.074219 C 109.011719 50.921875 108.980469 51.683594 108.960938 52.363281 C 108.949219 53.039062 108.945312 53.648438 108.945312 54.195312 C 108.945312 55.011719 108.949219 55.628906 108.960938 56.054688 C 108.980469 56.476562 108.992188 56.691406 108.992188 56.691406 C 108.957031 57.46875 108.550781 58.09375 107.765625 58.570312 C 106.988281 59.046875 106.226562 59.289062 105.480469 59.289062 C 105.035156 59.289062 104.664062 59.195312 104.359375 59.007812 C 104.054688 58.820312 103.90625 58.542969 103.90625 58.171875 C 103.90625 58.03125 103.910156 57.613281 103.921875 56.917969 C 103.941406 56.21875 103.964844 55.375 104 54.375 C 104.039062 53.375 104.070312 52.355469 104.105469 51.320312 C 104.140625 50.277344 104.164062 49.363281 104.179688 48.566406 C 104.199219 47.769531 104.207031 47.21875 104.207031 46.914062 L 104.207031 46.707031 C 104.039062 43.554688 103.519531 41.257812 102.652344 39.816406 C 101.785156 38.367188 100.84375 37.640625 99.832031 37.640625 C 98.640625 37.640625 97.503906 38.511719 96.417969 40.242188 C 95.328125 41.976562 94.667969 44.40625 94.433594 47.523438 C 94.261719 49.117188 94.152344 50.484375 94.101562 51.621094 C 94.050781 52.761719 94.015625 53.894531 93.996094 55.03125 C 93.984375 56.167969 93.921875 57.539062 93.816406 59.140625 C 93.785156 60.015625 93.375 60.753906 92.59375 61.351562 C 91.8125 61.941406 90.984375 62.242188 90.105469 62.242188 C 89.390625 62.242188 88.734375 62.019531 88.140625 61.578125 C 87.546875 61.132812 87.132812 60.402344 86.898438 59.386719 C 86.898438 59.386719 86.828125 58.933594 86.691406 58.039062 C 86.558594 57.136719 86.378906 55.941406 86.160156 54.449219 C 85.933594 52.957031 85.714844 51.3125 85.496094 49.515625 C 85.269531 47.710938 85.089844 45.886719 84.953125 44.039062 C 84.820312 42.1875 84.753906 40.480469 84.753906 38.921875 C 84.753906 37.121094 84.878906 35.617188 85.132812 34.414062 C 85.390625 33.207031 85.84375 32.589844 86.492188 32.554688 C 86.964844 32.183594 87.453125 31.886719 87.960938 31.664062 C 88.472656 31.441406 89.015625 31.296875 89.59375 31.226562 C 89.765625 31.195312 89.933594 31.179688 90.105469 31.179688 C 90.277344 31.179688 90.429688 31.179688 90.5625 31.179688 C 91.75 31.179688 92.625 31.375 93.179688 31.765625 C 93.742188 32.160156 94.117188 32.636719 94.300781 33.199219 C 94.492188 33.757812 94.585938 34.300781 94.585938 34.824219 C 94.585938 35.351562 94.601562 35.730469 94.632812 35.960938 C 94.632812 35.960938 94.9375 35.734375 95.542969 35.277344 C 96.15625 34.824219 96.957031 34.367188 97.945312 33.914062 C 98.933594 33.453125 99.984375 33.21875 101.105469 33.21875 C 102.324219 33.21875 103.5625 33.664062 104.816406 34.546875 C 106.074219 35.429688 107.160156 37.105469 108.078125 39.578125 C 108.453125 38.359375 109.164062 37.1875 110.214844 36.066406 C 111.265625 34.945312 112.511719 34.035156 113.953125 33.324219 C 115.394531 32.609375 116.882812 32.25 118.414062 32.25 C 119.667969 32.25 120.851562 32.539062 121.972656 33.113281 C 122.992188 33.621094 123.777344 34.429688 124.335938 35.535156 C 124.898438 36.636719 125.289062 37.925781 125.511719 39.40625 C 125.734375 40.882812 125.84375 42.433594 125.84375 44.058594 C 125.84375 45.824219 125.75 47.609375 125.558594 49.410156 C 125.375 51.207031 125.148438 52.859375 124.875 54.375 C 124.605469 55.886719 124.367188 57.082031 124.164062 57.960938 Z M 124.164062 57.960938 "/>
    <path style=" stroke:none;fill-rule:nonzero;fill:rgb(65.882355%,85.490197%,86.274511%);fill-opacity:1;" d="M 140.910156 15.140625 C 141.121094 15.886719 141.265625 16.914062 141.347656 18.222656 C 141.425781 19.527344 141.46875 20.976562 141.46875 22.570312 C 141.46875 24.847656 141.398438 27.320312 141.261719 29.984375 C 141.128906 32.648438 140.96875 35.285156 140.777344 37.898438 C 140.59375 40.511719 140.402344 42.898438 140.199219 45.054688 C 139.996094 47.214844 139.824219 48.945312 139.6875 50.253906 C 139.554688 51.558594 139.488281 52.210938 139.488281 52.210938 C 141.390625 51.394531 143.070312 50.164062 144.527344 48.519531 C 145.988281 46.875 147.253906 44.992188 148.320312 42.871094 C 149.390625 40.746094 150.289062 38.503906 151.015625 36.144531 C 151.75 33.785156 152.355469 31.476562 152.828125 29.222656 C 153.304688 26.964844 153.675781 24.878906 153.949219 22.960938 C 154.21875 21.042969 154.425781 19.457031 154.558594 18.207031 C 154.695312 16.949219 154.78125 16.164062 154.8125 15.851562 L 154.8125 15.699219 C 154.8125 15.054688 155.035156 14.570312 155.476562 14.246094 C 155.917969 13.925781 156.410156 13.761719 156.949219 13.761719 C 157.558594 13.761719 158.128906 13.949219 158.65625 14.324219 C 159.179688 14.699219 159.464844 15.277344 159.5 16.058594 L 159.5 17.378906 C 159.5 20.0625 159.257812 22.863281 158.78125 25.789062 C 158.304688 28.707031 157.625 31.554688 156.738281 34.339844 C 155.859375 37.125 154.824219 39.695312 153.636719 42.054688 C 152.453125 44.410156 151.164062 46.402344 149.773438 48.035156 C 151.609375 49.902344 153.117188 51.894531 154.300781 54.015625 C 155.488281 56.140625 156.382812 58.164062 156.976562 60.097656 C 157.570312 62.035156 157.867188 63.660156 157.867188 64.984375 L 157.867188 65.195312 C 157.867188 66.242188 157.570312 67.152344 156.976562 67.917969 C 156.382812 68.683594 155.640625 69.269531 154.757812 69.671875 C 153.875 70.078125 152.996094 70.28125 152.117188 70.28125 C 151.199219 70.28125 150.375 70.042969 149.640625 69.570312 C 148.914062 69.09375 148.464844 68.382812 148.292969 67.433594 C 148.121094 66.484375 147.851562 65.242188 147.476562 63.714844 C 147.101562 62.1875 146.59375 60.535156 145.949219 58.75 C 145.308594 56.96875 144.480469 55.230469 143.464844 53.53125 C 142.78125 54.242188 142.082031 54.769531 141.367188 55.105469 C 140.65625 55.445312 140.066406 55.667969 139.589844 55.769531 C 139.117188 55.875 138.878906 55.929688 138.878906 55.929688 C 138.878906 56.539062 138.835938 57.488281 138.746094 58.777344 C 138.664062 60.070312 138.546875 61.492188 138.394531 63.050781 C 138.242188 64.609375 138.054688 66.078125 137.835938 67.453125 C 137.613281 68.832031 137.351562 69.910156 137.046875 70.6875 C 136.878906 71.128906 136.578125 71.460938 136.15625 71.6875 C 135.730469 71.90625 135.230469 72.019531 134.648438 72.019531 C 133.699219 72.019531 132.730469 71.746094 131.742188 71.203125 C 130.761719 70.65625 130.101562 69.996094 129.761719 69.21875 C 129.355469 68.230469 129.003906 66.589844 128.714844 64.300781 C 128.429688 62.007812 128.21875 59.3125 128.082031 56.207031 C 127.949219 53.097656 127.882812 49.816406 127.882812 46.355469 C 127.882812 43.027344 127.9375 39.691406 128.050781 36.351562 C 128.171875 33.007812 128.359375 29.863281 128.613281 26.925781 C 128.871094 23.992188 129.1875 21.4375 129.5625 19.269531 C 129.933594 17.09375 130.371094 15.527344 130.878906 14.578125 C 131.421875 13.5625 132.136719 12.824219 133.015625 12.367188 C 133.898438 11.90625 134.820312 11.675781 135.777344 11.675781 C 136.957031 11.675781 138.039062 11.984375 139.023438 12.597656 C 140.007812 13.203125 140.636719 14.054688 140.910156 15.140625 Z M 140.910156 15.140625 "/>
    <path style=" stroke:none;fill-rule:nonzero;fill:rgb(65.882355%,85.490197%,86.274511%);fill-opacity:1;" d="M 163.105469 34.539062 C 163.144531 33.761719 163.585938 33.167969 164.4375 32.765625 C 165.28125 32.355469 166.230469 32.148438 167.28125 32.148438 C 168.402344 32.148438 169.4375 32.382812 170.386719 32.859375 C 171.339844 33.332031 171.886719 34.0625 172.019531 35.050781 C 172.117188 35.867188 172.167969 37.109375 172.167969 38.773438 C 172.167969 40.398438 172.109375 42.273438 171.988281 44.398438 C 171.875 46.519531 171.714844 48.679688 171.503906 50.882812 C 171.300781 53.089844 171.054688 55.136719 170.765625 57.023438 C 170.480469 58.90625 170.167969 60.441406 169.835938 61.625 C 169.695312 62.269531 169.390625 62.753906 168.914062 63.078125 C 168.441406 63.398438 167.914062 63.5625 167.339844 63.5625 C 166.761719 63.5625 166.175781 63.425781 165.582031 63.152344 C 164.988281 62.878906 164.503906 62.492188 164.132812 61.984375 C 163.859375 61.339844 163.636719 60.089844 163.46875 58.238281 C 163.296875 56.390625 163.167969 54.148438 163.078125 51.519531 C 162.996094 48.894531 162.957031 46.101562 162.957031 43.148438 C 162.957031 41.789062 162.964844 40.421875 162.984375 39.046875 C 163.003906 37.675781 163.027344 36.308594 163.058594 34.945312 C 163.058594 34.878906 163.0625 34.800781 163.078125 34.71875 C 163.097656 34.636719 163.105469 34.578125 163.105469 34.539062 Z M 167.644531 19.980469 C 168.460938 20.050781 169.289062 20.230469 170.140625 20.519531 C 170.984375 20.804688 171.699219 21.210938 172.273438 21.734375 C 172.847656 22.261719 173.136719 22.96875 173.136719 23.851562 L 173.136719 23.898438 C 173.105469 25.324219 172.582031 26.351562 171.5625 26.984375 C 170.542969 27.609375 169.136719 27.921875 167.339844 27.921875 L 166.875 27.921875 C 165.449219 27.886719 164.246094 27.511719 163.257812 26.804688 C 162.277344 26.089844 161.789062 25.257812 161.789062 24.308594 C 161.789062 24.238281 161.789062 24.152344 161.789062 24.050781 C 161.789062 23.953125 161.800781 23.867188 161.835938 23.796875 C 162.074219 22.605469 162.71875 21.664062 163.769531 20.96875 C 164.820312 20.273438 165.925781 19.921875 167.082031 19.921875 C 167.183594 19.921875 167.277344 19.933594 167.359375 19.953125 C 167.445312 19.96875 167.542969 19.980469 167.644531 19.980469 Z M 167.644531 19.980469 "/>
    <path style=" stroke:none;fill-rule:nonzero;fill:rgb(65.882355%,85.490197%,86.274511%);fill-opacity:1;" d="M 176.296875 33.628906 C 176.667969 31.996094 177.355469 30.832031 178.355469 30.136719 C 179.359375 29.441406 180.4375 29.089844 181.589844 29.089844 C 182.476562 29.089844 183.308594 29.261719 184.085938 29.605469 C 184.863281 29.941406 185.5 30.398438 185.996094 30.980469 C 186.488281 31.554688 186.734375 32.21875 186.734375 32.964844 C 186.734375 33.066406 186.734375 33.167969 186.734375 33.265625 C 186.734375 33.367188 186.71875 33.472656 186.6875 33.570312 C 186.992188 33.472656 187.488281 33.285156 188.1875 33.011719 C 188.882812 32.742188 189.71875 32.488281 190.703125 32.25 C 191.6875 32.011719 192.742188 31.890625 193.859375 31.890625 C 194.539062 31.890625 195.234375 31.953125 195.949219 32.070312 C 196.664062 32.191406 197.375 32.402344 198.085938 32.707031 C 199.714844 33.21875 201.007812 34.238281 201.957031 35.761719 C 202.90625 37.289062 203.589844 39.089844 204.015625 41.164062 C 204.4375 43.230469 204.652344 45.386719 204.652344 47.625 C 204.652344 49.464844 204.53125 51.261719 204.289062 53.027344 C 204.054688 54.792969 203.734375 56.410156 203.332031 57.886719 C 202.925781 59.359375 202.453125 60.570312 201.910156 61.519531 C 201.363281 62.476562 200.804688 63.054688 200.230469 63.257812 C 199.917969 63.394531 199.613281 63.515625 199.308594 63.617188 C 199.003906 63.71875 198.699219 63.769531 198.398438 63.769531 C 197.8125 63.769531 197.253906 63.582031 196.71875 63.210938 C 196.375 62.9375 196.144531 62.53125 196.023438 61.984375 C 195.902344 61.441406 195.84375 60.78125 195.84375 60.003906 C 195.84375 58.742188 195.953125 57.253906 196.175781 55.542969 C 196.398438 53.828125 196.617188 52.011719 196.839844 50.09375 C 197.0625 48.175781 197.171875 46.300781 197.171875 44.464844 C 197.171875 42.839844 197.035156 41.296875 196.765625 39.835938 C 196.492188 38.375 195.980469 37.101562 195.238281 36.019531 C 194.621094 35.070312 193.742188 34.597656 192.589844 34.597656 C 191.601562 34.597656 190.597656 34.910156 189.582031 35.535156 C 188.5625 36.160156 187.78125 36.933594 187.246094 37.851562 C 187.074219 38.191406 186.957031 38.535156 186.886719 38.875 C 186.816406 39.214844 186.78125 39.566406 186.78125 39.9375 C 186.78125 40.175781 186.792969 40.421875 186.808594 40.679688 C 186.828125 40.933594 186.839844 41.175781 186.839844 41.410156 C 186.738281 44.503906 186.507812 47.730469 186.144531 51.089844 C 185.789062 54.449219 185.34375 57.660156 184.796875 60.714844 C 184.664062 61.59375 184.195312 62.261719 183.394531 62.71875 C 182.597656 63.175781 181.722656 63.410156 180.773438 63.410156 C 179.792969 63.410156 178.878906 63.152344 178.023438 62.640625 C 177.171875 62.132812 176.667969 61.390625 176.503906 60.410156 C 176.363281 59.421875 176.242188 58.050781 176.144531 56.300781 C 176.042969 54.554688 175.964844 52.628906 175.917969 50.519531 C 175.863281 48.421875 175.839844 46.351562 175.839844 44.3125 C 175.839844 41.804688 175.878906 39.558594 175.964844 37.574219 C 176.050781 35.589844 176.164062 34.273438 176.296875 33.628906 Z M 176.296875 33.628906 "/>
    <g clip-path="url(#clip1)" clip-rule="nonzero">
      <g clip-path="url(#clip2)" clip-rule="nonzero">
        <path style=" stroke:none;fill-rule:nonzero;fill:rgb(100%,100%,100%);fill-opacity:1;" d="M 160.484375 15.203125 L 175 15.203125 L 175 29.71875 L 160.484375 29.71875 Z M 160.484375 15.203125 "/>
      </g>
    </g>
    <g clip-path="url(#clip3)" clip-rule="nonzero">
      <path style=" stroke:none;fill-rule:nonzero;fill:rgb(65.882355%,85.490197%,86.274511%);fill-opacity:1;" d="M 169.46875 19.597656 C 167.824219 19.921875 166.953125 21.488281 167.242188 23.175781 C 166.75 21.957031 165.84375 20.902344 164.671875 20.449219 C 163.535156 20.007812 162.214844 20.394531 161.425781 21.378906 C 161.230469 21.625 161.066406 21.902344 160.953125 22.207031 C 160.484375 23.460938 160.894531 24.867188 161.734375 25.820312 C 162.535156 26.734375 163.570312 27.398438 164.605469 27.953125 C 166.910156 29.191406 168.992188 29.703125 168.992188 29.703125 C 168.707031 29.632812 163.199219 27.375 162.484375 24.574219 C 162.332031 23.804688 162.574219 22.9375 163.21875 22.453125 C 163.390625 22.324219 163.585938 22.226562 163.792969 22.164062 C 165.484375 21.664062 167.328125 23.796875 167.75 25.398438 C 167.589844 24.335938 167.539062 23.148438 168.003906 22.148438 C 168.273438 21.570312 168.742188 21.082031 169.371094 20.917969 C 170.480469 20.625 171.59375 21.527344 171.773438 22.546875 C 172.148438 25.652344 168.191406 29.101562 168.191406 29.101562 C 168.191406 29.101562 172.792969 26.183594 172.621094 22.398438 C 172.546875 20.828125 171.167969 19.238281 169.46875 19.597656 Z M 169.46875 19.597656 "/>
    </g>
  </g>
</svg>
